<?xml version="1.0" standalone="no"?><!DOCTYPE svg PUBLIC "-//W3C//DTD SVG 1.1//EN" "http://www.w3.org/Graphics/SVG/1.1/DTD/svg11.dtd"><svg t="1729172659658" class="icon" viewBox="0 0 1024 1024" version="1.1" xmlns="http://www.w3.org/2000/svg" p-id="8971" data-spm-anchor-id="a313x.search_index.0.i7.117a3a818W6JlA" xmlns:xlink="http://www.w3.org/1999/xlink" width="200" height="200"><path d="M102.4 102.4m307.2 0l204.8 0q307.2 0 307.2 307.2l0 204.8q0 307.2-307.2 307.2l-204.8 0q-307.2 0-307.2-307.2l0-204.8q0-307.2 307.2-307.2Z" fill="#1677ff" p-id="8972" data-spm-anchor-id="a313x.search_index.0.i4.117a3a818W6JlA" class=""></path><path d="M512 512v307.2c-84.83328 0-153.6-68.76672-153.6-153.6 0-84.83328 68.76672-153.6 153.6-153.6z m307.2 0c0 84.83328-68.76672 153.6-153.6 153.6-84.83328 0-153.6-68.76672-153.6-153.6zM358.4 358.4c84.83328 0 153.6 68.76672 153.6 153.6H204.8c0-84.83328 68.76672-153.6 153.6-153.6z m153.6-153.6c84.83328 0 153.6 68.76672 153.6 153.6 0 84.83328-68.76672 153.6-153.6 153.6z" fill="#91caff" fill-opacity=".8" p-id="8973" data-spm-anchor-id="a313x.search_index.0.i5.117a3a818W6JlA" class="selected"></path></svg>